# xmcd
# 
# Track frame offsets:
#     150
#     15059
#     35619
#     51600
#     61966
#     78477
#     98147
#     118909
#     128667
#     145319
#     157637
#     170673
# 
# Disc length: 2487
# 
# Revision: 0
# Processed by: cddbd v1.5.2PL0 Copyright (c) Steve Scherf et al.
# Submitted via: fre:ac v1.0.17
# 
DISCID=9909b50c
DTITLE=The Cranberries - Everybody Else Is Doing It So Why Can't We?
DYEAR=0
DGENRE=
TTITLE0=I Still Do
TTITLE1=Dreams
TTITLE2=Sunday
TTITLE3=Pretty
TTITLE4=Waltzing Back
TTITLE5=Not Sorry
TTITLE6=Linger
TTITLE7=Wanted
TTITLE8=Still Can't...
TTITLE9=I Will Always
TTITLE10=How
TTITLE11=Put Me Down
EXTD=
EXTT0=
EXTT1=
EXTT2=
EXTT3=
EXTT4=
EXTT5=
EXTT6=
EXTT7=
EXTT8=
EXTT9=
EXTT10=
EXTT11=
PLAYORDER=
